<svg xmlns="http://www.w3.org/2000/svg" version="1.1" xmlns:xlink="http://www.w3.org/1999/xlink" width="512"
  height="512" x="0" y="0" viewBox="0 0 340 340" style="enable-background:new 0 0 512 512" xml:space="preserve"
  className="">
  <g>
    <path fill="#fff09f"
      d="M124.857 63.761s3.09-24.72-21.437-29.355c0 0-23.948-5.794-38.24 10.622 0 0 .966 3.476 6.566 4.828 0 0-13.712 4.056-17.961 23.755a33.269 33.269 0 0 1-2.632 7.568s-2.84 6.814-6.527 8.658c0 0 2.748 4.011 12.791 2.852a64.832 64.832 0 0 0-.778 12.1s16.594 7.519 35.193-5.3z"
      opacity="1" data-original="#fff09f"></path>
    <path fill="#ffaf5f"
      d="M124.857 63.761A31.777 31.777 0 0 0 122 47.6c.344 4.152-.719 8.912-11.192 8.658a26.974 26.974 0 0 0-10.889 1.88A37.119 37.119 0 0 0 83.1 72.1a25.46 25.46 0 0 1-15.483 10.968 26 26 0 0 1-16.466-1.89c-1.619 3.292-4.107 6.812-7.8 8.656 0 0 3.09 5.021 13.133 3.862a72.308 72.308 0 0 0-.579 11.781s17.386 7.723 35.927-5.987z"
      opacity="1" data-original="#ffaf5f"></path>
    <path fill="#c0d1e0" d="M115.951 136.79s16.979 12.865 30.826 13.6v25.478s-15.041 5.169-26.352 1.108z" opacity="1"
      data-original="#c0d1e0"></path>
    <path fill="#ffdcd2"
      d="M146.777 150.393a33.123 33.123 0 0 0 24.51-10.515c1.871-1.995 1.72-5.21.9-7.833-1.207-3.858-2.175-10.008 2.434-13.085l.884-9.059a8.747 8.747 0 0 1 8.654-7.956 8.749 8.749 0 0 1 8.7 8.773c0 1.666.021 3.472.011 5.388 0 0 .808 42.785-45.818 59.765z"
      opacity="1" data-original="#ffdcd2"></path>
    <path fill="#fc9d9a" d="M90.532 102.315v22.456l23.476 15.719v-28.376L93.912 95.783z" opacity="1"
      data-original="#fc9d9a"></path>
    <path fill="#ffdcd2"
      d="M124.857 63.761S92.218 57.388 87.776 87.9c0 0-7.953-2.651-10.695 3.907a9.4 9.4 0 0 0 .741 8.567c2.088 3.326 6.713 6.893 16.714 3.363a71.612 71.612 0 0 0 15.829 12.311 18.363 18.363 0 0 0 12.55 2.3 16.812 16.812 0 0 0 3.551-1.078c4.729-2.035 8.761-8.131 9.2-13.259.99-11.594-2.766-26.841-10.809-40.25z"
      opacity="1" data-original="#ffdcd2"></path>
    <path fill="#ffffff"
      d="m122.222 203.564-.157-5.507c-1.61-6.7-1.529-29.956-1.608-51.053a13.958 13.958 0 0 0-5.033-10.676l-9.325-7.759a245.99 245.99 0 0 0-9.675-7.092 12.929 12.929 0 0 0-4.329-1.943c-5.262-1.279-17.587-2.985-28.952 5.012-14.954 10.524-21.969 15.943-21.969 15.943l17.539 24.489 8.123-2.031a161.722 161.722 0 0 1 2.031 25.847v34.065c0 1.406-.734 2.723-.692 4.129.505 16.808 9.692 19.794 9.692 19.794v-3.563z"
      opacity="1" data-original="#ffffff" className=""></path>
    <path fill="#c0d1e0"
      d="M122.065 198.057c-17.873 2.884-29.527 10.442-36.589 17.018a5.3 5.3 0 0 1-8.879-3.943c.1-15.046-.053-31.215-.15-39.255a8.706 8.706 0 0 1 3.649-7.2 20.357 20.357 0 0 1 7.967-4.279 1.148 1.148 0 0 0-.034-2.22l-.036-.009c-11.615-6.865-26.428-2.227-34.357-.283l5.077 7.087 8.123-2.031s.538 2.989 1.06 7.876c.058.544.116 1.116.173 1.706l.019.195c.418 4.372.779 9.922.779 16.07v34.065c0 1.406-.792 2.726-.692 4.129a29.732 29.732 0 0 0 9.692 19.794v-3.563l44.355-39.655z"
      opacity="1" data-original="#c0d1e0"></path>
    <path fill="#ffdcd2"
      d="m41.174 140.49-23.58 17.544a15.6 15.6 0 0 0-6.27 11.764l-2.61 54.08a6.56 6.56 0 0 0 4.519 6.824l3.21 1.056c4.5 1.658 8.012-1.415 8.541-6.184l1.12-8.022 4.01-4.047a7.055 7.055 0 0 0 2.8-5v-2.052a7.358 7.358 0 0 0-3.638-7.275l-2.425-1.12 1.492-12.592a15.132 15.132 0 0 1 7.742-10.913l22.22-10.143z"
      opacity="1" data-original="#ffdcd2"></path>
    <path fill="#ea9387"
      d="m239.505 99.514 3.657-4.257a3.836 3.836 0 0 1 5.737-.095l7.459 8.11a3.84 3.84 0 0 1 .22 4.936l-1.659 2.164a3.85 3.85 0 0 1-3.523 1.475 17 17 0 0 1-12.169-7.693 3.832 3.832 0 0 1 .278-4.64z"
      opacity="1" data-original="#ea9387"></path>
    <path fill="#ecf7ff"
      d="M320.264 51.385a36.515 36.515 0 0 1-20.317 32.734s-20.3 3.609-22.272 3.278a36.518 36.518 0 1 1 42.589-36.012z"
      opacity="1" data-original="#ecf7ff"></path>
    <path fill="#80919b"
      d="m299.944 84.112-7.25-15.406H274.8l-7.251 15.406a36.328 36.328 0 0 0 10.126 3.288c1.975.327 22.269-3.288 22.269-3.288zM247.234 51.367l17.007.342 3.971-8.015 3.971-8.016-10.577-13.322a36.45 36.45 0 0 0-14.372 29.011zM305.891 22.356l-10.576 13.322 3.971 8.016 3.97 8.015 17.007-.342a36.447 36.447 0 0 0-14.372-29.011z"
      opacity="1" data-original="#80919b"></path>
    <path fill="#f75e5e"
      d="M115.24 135.949a257.782 257.782 0 0 0-9.141-7.38v36.5c0 1.609-1.329.226-6.652 1.068a3.37 3.37 0 0 0-2.844 3.31l-.046 11.053c-.008 1.942 2.316 3.773 7.832 5.467a2.418 2.418 0 0 1 1.71 2.306v25.235l5.208-.182 10.915-9.759-1.607-56.421a15.23 15.23 0 0 0-5.375-11.197z"
      opacity="1" data-original="#f75e5e"></path>
    <path fill="#94a6c1"
      d="M311.81 74.744a37.5 37.5 0 0 1-37.01-6.038c-5.109-4.375-8.482-10.432-10.563-17a44.635 44.635 0 0 1-1.526-12.241 34.984 34.984 0 0 1 7.574-22.026 36.518 36.518 0 0 0 7.39 69.961c1.975.331 22.272-3.28 22.272-3.28a36.656 36.656 0 0 0 11.863-9.376z"
      opacity="1" data-original="#94a6c1"></path>
    <path fill="#c44444" d="M122.065 198.057a78.446 78.446 0 0 0-15.966 4.287v11.161l5.208-.182 10.915-9.759z"
      opacity="1" data-original="#c44444"></path>
    <path fill="#f75e5e"
      d="M209.664 166.7s30.38-22.339 59.867-33.955l4.754 14.153s-20.167 24.713-56.206 45.86c0-.001-14.372-5.508-8.415-26.058z"
      opacity="1" data-original="#f75e5e"></path>
    <path fill="#c44444"
      d="m275.19 147.935-5.659-15.191c-4.894 1.928-9.81 4.155-14.61 6.522a79.352 79.352 0 0 1-16.057 21.851 136.171 136.171 0 0 1-11.375 9.354q-8.8 6.691-17.737 13.2a18.577 18.577 0 0 0 9.145 9.83c36.039-21.143 56.293-45.566 56.293-45.566z"
      opacity="1" data-original="#c44444"></path>
    <path fill="#ffdcd2"
      d="M156.945 191.718s30.38-12.51 52.719-25.019c0 0-2.6 16.527 8.415 26.058 0 0-23.059 19.059-47.185 42.291 0 0-18.164-.013-21.1-20.1s7.151-23.23 7.151-23.23z"
      opacity="1" data-original="#ffdcd2"></path>
    <path fill="#fc9d9a"
      d="M151.614 221.662c5.642 13.481 20.223 13.839 20.223 13.839 24.126-23.232 47.06-42 47.06-42a25.529 25.529 0 0 1-7.29-11.195 638.831 638.831 0 0 1-58.075 38.258q-.955.553-1.918 1.098z"
      opacity="1" data-original="#fc9d9a"></path>
    <path fill="#80919b"
      d="M77.5 238.363s8.8-17.375 24.616-28.852a52.164 52.164 0 0 1 20.111-9.156c27.575-5.361 34.723-8.637 34.723-8.637s-13.016 30.073 13.949 43.33c0 0-5.214 7.522-19.324 15.675a32.194 32.194 0 0 0-13.4 14.64c-2.532 5.665-2.535 12.73-2.353 21.966 0 0-32.23-3.339-44.15 10.957 0 0-7.709-16.509-12.23-26.019a44.09 44.09 0 0 1-1.942-33.904z"
      opacity="1" data-original="#80919b"></path>
    <path fill="#525c68"
      d="M131.279 230.061c-7.958 1.526-16.82.331-22.967-4.949a18.4 18.4 0 0 1-6.2-15.6c-15.988 11.512-25.734 28.968-25.734 28.968a46.784 46.784 0 0 0 2.233 34.55c4.522 9.51 11.921 26.508 11.921 26.508 5.514-6.614 15.617-9.717 24.884-11.147a75.643 75.643 0 0 1 18.444-24.75 128.878 128.878 0 0 1 17.71-12.918c14.111-8.151 20.267-15.222 20.267-15.222-8.977-4.157-13.753-10.084-16.095-16.238-.739.43-1.468.878-2.21 1.305-7.023 4.043-14.294 7.966-22.253 9.493z"
      opacity="1" data-original="#525c68"></path>
    <path fill="#80919b"
      d="M271.357 124.557c-6.869 2.423-10.114 10.539-8.876 17.718a24.044 24.044 0 0 0 2.678 7.439c5.184 9.5 16.257 6.324 22.077 2.716a39.186 39.186 0 0 0 6.486-5.514c2.382-2.491 7.844-6.622 19.2-9.294 9.584-2.255 14.165-10.384 16.851-16.229 1.777-3.867.726-9.067-1.711-12.556a11.981 11.981 0 0 0-11.3-5.07c-6.162.785-15.722 1.923-25.442 9.346-8.763 6.687-15.877 10.003-19.963 11.444z"
      opacity="1" data-original="#80919b"></path>
    <path fill="#fc9d9a"
      d="m152.9 156.786-1.762-6.621a25.409 25.409 0 0 1-4.363.228v25.478c43.235-12.132 45.985-41.359 46.089-59.974-2.807 27.849-19.273 39.6-32.736 44.565a5.494 5.494 0 0 1-7.228-3.676z"
      opacity="1" data-original="#fc9d9a"></path>
    <path fill="#bc5f5a"
      d="m256.358 103.272-2.886-3.137a10.078 10.078 0 0 1-1.435 3.332 6.087 6.087 0 0 1-6.059 2.428 13.786 13.786 0 0 1-7.389-3.729 3.758 3.758 0 0 0 .638 1.988 17 17 0 0 0 12.169 7.693 3.85 3.85 0 0 0 3.523-1.475l1.659-2.164a3.84 3.84 0 0 0-.22-4.936z"
      opacity="1" data-original="#bc5f5a"></path>
    <path fill="#525c68"
      d="M262.715 39.468a36.036 36.036 0 0 1 2.306-12.81l-3.415-4.3a36.45 36.45 0 0 0-14.372 29.011l17.007.342a44.635 44.635 0 0 1-1.526-12.243zM296.649 77.112a36.306 36.306 0 0 1-21.849-8.406l-7.251 15.406a36.516 36.516 0 0 0 32.391 0z"
      opacity="1" data-original="#525c68"></path>
    <path fill="#ffdcd2"
      d="M91.671 299.538s.962 14.085 2.653 25.592H133.6c2.4-6.1 3.618-22.895 2.22-37.8a44.643 44.643 0 0 0-18.618-2.5s-17.378 4.22-25.531 14.708z"
      opacity="1" data-original="#ffdcd2"></path>
    <path fill="#fc9d9a"
      d="M90.532 299.538s.774 14.085 2.468 25.592h13.668a93.129 93.129 0 0 1 10.532-40.287c-8.522.697-18.514 4.204-26.668 14.695z"
      opacity="1" data-original="#fc9d9a"></path>
    <path fill="#525c68"
      d="M329.772 121.393c1.777-3.867.726-9.067-1.711-12.556a12.056 12.056 0 0 0-8.145-5.04c2.292 3.595 5.653 12.036-4.309 21.87 0 0-2.512 3.207-11.047 5.83 0 0-10.8 3.14-15.655 10.438a18.883 18.883 0 0 1-5.655 5.757c-3.635 2.25-9.448 4.321-17.625 2.813 5.356 8.527 15.96 5.429 21.611 1.925a39.186 39.186 0 0 0 6.486-5.514c2.382-2.491 7.844-6.622 19.2-9.294 9.583-2.255 14.164-10.384 16.85-16.229z"
      opacity="1" data-original="#525c68"></path>
    <g fill="#313844">
      <path
        d="M249.556 115.377a9.329 9.329 0 0 0 1.628.144 9.639 9.639 0 0 0 6.841-16.4l-6.158-6.253a8.318 8.318 0 0 0-12.417.636l-1.483 1.851a10.836 10.836 0 0 0 .785 14.435 20.7 20.7 0 0 0 10.804 5.587zm-5.505-15.145.726-.607a2.171 2.171 0 0 1 2.94.142l4.676 4.748a1.918 1.918 0 0 1 .32 2.349 1.786 1.786 0 0 1-1.788.838 12.766 12.766 0 0 1-6.744-3.5 2.978 2.978 0 0 1-.13-3.97zM259.379 19.172a39.149 39.149 0 0 0-14.77 22.128 38.492 38.492 0 0 0-1.272 10.06v.019A40.416 40.416 0 0 0 265.7 87.527c12.524 6.26 25.663 3.543 25.663 3.543l-1.687 1.83a3.9 3.9 0 1 0 5.735 5.28l15.874-17.238c.017-.019.028-.041.044-.059a40.3 40.3 0 0 0 12.832-29.5v-.019c-.876-20.215-15.9-32.106-15.9-32.106-.044-.034-.093-.054-.139-.086a40.312 40.312 0 0 0-48.739 0zm-7.873 27.271v-.024a32.561 32.561 0 0 1 9.573-18.456l6.51 8.2-5.746 11.6-10.482-.21c.047-.372.089-.743.145-1.11zm-.125 8.906 12.781.257h.079a3.9 3.9 0 0 0 3.493-2.167l7.941-16.031a3.9 3.9 0 0 0-.44-4.154l-7.948-10.012a32.508 32.508 0 0 1 32.923 0l-7.948 10.012a3.9 3.9 0 0 0-.44 4.154l7.942 16.03a3.9 3.9 0 0 0 3.492 2.168h.079l12.782-.257a32.65 32.65 0 0 1-14.45 23.271l-5.447-11.573a3.9 3.9 0 0 0-3.526-2.239H274.8a3.9 3.9 0 0 0-3.527 2.239L265.83 78.62a32.646 32.646 0 0 1-14.449-23.271zm64.608-8.93v.024c.056.367.1.738.141 1.109l-10.482.21-5.746-11.6 6.511-8.2a32.573 32.573 0 0 1 9.576 18.457zM272.8 82.108l4.473-9.5h12.947l4.473 9.5c-5.293 3.205-18.018 2.118-21.893 0zM227.1 69.376a3.9 3.9 0 0 0 0 7.8h3a3.9 3.9 0 1 0 0-7.8zM310.321 164.682a3.9 3.9 0 1 0-7.8 0v2.018a3.9 3.9 0 1 0 7.8 0zM113.538 260.778c-17.168-.292-21.268-8.467-21.487-8.932a3.9 3.9 0 0 0-7.173 3.051c.226.542 5.787 13.289 28.528 13.675h.068a3.9 3.9 0 0 0 .064-7.794zM109.513 88.728h3.207a3.9 3.9 0 0 0 0-7.8h-3.207a3.9 3.9 0 0 0 0 7.8z"
        fill="#313844" opacity="1" data-original="#313844" className=""></path>
      <circle cx="278.183" cy="139.764" r="3.898" fill="#313844" opacity="1" data-original="#313844" className="">
      </circle>
      <circle cx="287.009" cy="127.599" r="3.898" fill="#313844" opacity="1" data-original="#313844" className="">
      </circle>
      <circle cx="292.544" cy="135.866" r="3.898" fill="#313844" opacity="1" data-original="#313844" className="">
      </circle>
      <circle cx="300.662" cy="125.667" r="3.898" fill="#313844" opacity="1" data-original="#313844" className="">
      </circle>
      <circle cx="308.761" cy="115.522" r="3.898" fill="#313844" opacity="1" data-original="#313844" className="">
      </circle>
      <circle cx="314.615" cy="124.792" r="3.898" fill="#313844" opacity="1" data-original="#313844" className="">
      </circle>
      <path
        d="m316.578 99.9-.229.029c-6.229.792-16.653 2.117-27.086 10.085-8.9 6.8-15.655 9.725-18.889 10.866a17.874 17.874 0 0 0-10.822 12.02c-25.579 11.672-49.1 28.626-51.678 30.508-21.854 12.212-51.8 24.582-52.1 24.706-.018.007-.032.019-.05.026s-.044.014-.065.024c-.068.03-6.656 2.875-29.449 7.489l-1.371-48.1a57.746 57.746 0 0 0 18.354 6.357v19.032a55.485 55.485 0 0 1-8.083 1.461 3.9 3.9 0 0 0 .392 7.776c.133 0 .266-.007.4-.02a61.871 61.871 0 0 0 12.362-2.575c49.063-13.826 48.9-48.758 48.808-67.532l-.006-1.477a12.595 12.595 0 0 0-25.128-1.18l-.722 7.286c-3.768 3.511-4.64 9.14-2.432 16.1.531 1.673.474 3.279-.142 4a27.544 27.544 0 0 1-21.283 9.727h-.062c-11.69-.623-22.67-8.045-24.1-9.047-.57-.522-2.312-2.1-4.977-4.361v-10.65c.623.054 6.941.29 10.1-1.595 5.515-3.29 10.968-9.79 11.542-16.509 1.078-12.622-2.918-28.023-10.695-41.455.743-10.142-3.43-28.245-24.623-32.3-2.073-.482-26.667-5.725-41.991 11.875a3.9 3.9 0 0 0-.815 3.6 9.41 9.41 0 0 0 2.323 3.766c-4.912 3.65-11.1 10.548-13.789 23.036-.56 2.867-3.151 10.878-8.345 13.475a3.9 3.9 0 0 0-1.577 5.528c.385.626 3.586 5.382 12.132 5.855a82.297 82.297 0 0 0-.155 7.858 3.9 3.9 0 0 0 2.313 3.45 36.413 36.413 0 0 0 13.189 2.5h.059a3.9 3.9 0 0 0 .058-7.8 32.183 32.183 0 0 1-7.853-1.08 66.235 66.235 0 0 1 .562-8.375 3.9 3.9 0 0 0-4.3-4.465 16.464 16.464 0 0 1-5.956-.249c5.7-5.973 7.436-14.756 7.509-15.142 3.664-16.99 14.817-20.7 15.256-20.839a3.9 3.9 0 0 0-.191-7.527 8.678 8.678 0 0 1-2.226-.838c12.7-11.459 31.871-7.082 32.068-7.035.064.016.128.029.193.042 15.292 2.889 18.009 14.871 18.357 21.17-5.858-.371-16.268.031-24.755 6.048-5.865 4.158-9.77 10.206-11.639 18.013-4.029-.111-8.86 1.3-11.174 6.839a13.256 13.256 0 0 0 1.036 12.141 14 14 0 0 0 12.114 6.643v5.62a38.307 38.307 0 0 0-25.734 6.661c-14.7 10.342-21.66 15.7-22.087 16.029L15.58 154.908a19.426 19.426 0 0 0-7.836 14.7l-2.61 54.081a11.24 11.24 0 0 0 7.375 11.137s5.013 1.59 6.327 1.59a11.306 11.306 0 0 0 11.205-10.049l.748-6.738 2.773-2.4a12 12 0 0 0 4.125-8.154l.19-2.374a11.991 11.991 0 0 0-5.724-11.248L33.441 186a9.031 9.031 0 0 1 5.083-6.957l21.825-10.382 7.745-1.935c.025-.007.047-.02.072-.027.04-.01.081-.015.121-.027l13.644-4.168a13.785 13.785 0 0 1 5.848-.471 3.9 3.9 0 0 0 1.053-7.724 21.655 21.655 0 0 0-9.179.74L66.1 159.192l-5.449 1.362-13.782-19.242c3.365-2.508 9.592-7.077 18.83-13.578 11.974-8.427 25.087-4.735 27.556-3.924a249.1 249.1 0 0 1 23.634 18.456l1.568 55.056a51.084 51.084 0 0 0-8.148 3.006v-17a3.9 3.9 0 0 0-3.9-3.9h-5.4v-10.07h5.4a3.9 3.9 0 0 0 3.9-3.9v-19.4a3.9 3.9 0 0 0-7.8 0v15.5h-5.4a3.9 3.9 0 0 0-3.9 3.9v17.866a3.9 3.9 0 0 0 3.9 3.9h5.4v17.471c-15.059 9.907-25.13 25.107-28.231 30.2a18.4 18.4 0 0 1-1.262-9.065 3.944 3.944 0 0 0 .056-.659v-36.377c0-3.811-.137-7.741-.406-11.682a3.9 3.9 0 1 0-7.777.531c.257 3.765.388 7.517.388 11.151v36.1a26.19 26.19 0 0 0 5.893 19.649A50.992 50.992 0 0 0 75.4 274.7c3.955 8.319 10.213 22.6 11.589 25.755.178 2.967.931 14.574 2.38 24.672h7.818a3.73 3.73 0 0 0-.026-.567c-1.313-8.939-2.073-19.6-2.329-23.609 8.4-8.377 27.581-9.961 37.687-9.848.908 13.753-.351 27.812-2.236 32.594a3.885 3.885 0 0 0-.264 1.43h8.012c2.381-7.737 3.277-24.126 1.993-38.008-.177-9.066-.124-15.378 2.016-20.169a28.14 28.14 0 0 1 11.793-12.85c13.554-7.832 20.1-14.756 21.118-15.883 22.522-21.679 44.23-39.638 46.515-41.52a251.247 251.247 0 0 0 49.045-37.722 34.243 34.243 0 0 0 5.584.926c6.228 0 11.715-3.045 13.508-4.156a42.812 42.812 0 0 0 7.249-6.134c1.9-1.989 6.677-5.7 17.274-8.193 11.1-2.611 16.445-11.749 19.5-18.395 2.579-5.613.825-12.289-2.057-16.416a15.817 15.817 0 0 0-14.991-6.707zm-165.591 54.25a35.608 35.608 0 0 0 23.568-12.294c2.455-2.857 3.059-7.026 1.659-11.436-.774-2.437-1.691-6.778.86-8.456a3.9 3.9 0 0 0 1.737-2.872l.884-8.925a4.8 4.8 0 0 1 9.576.431s6.415 48.01-38.284 59.987zm-97.844 9.31-17.967 8.547a16.8 16.8 0 0 0-9.459 12.943l-1.635 12a3.9 3.9 0 0 0 1.856 3.868l2.11 1.266a4.241 4.241 0 0 1 2.058 4l-.19 2.374a4.245 4.245 0 0 1-1.459 2.884l-3.926 3.4a3.9 3.9 0 0 0-1.321 2.516l-.917 8.254a3.473 3.473 0 0 1-1.634 2.585c-.92.568-5.457-.582-5.457-.582a3.479 3.479 0 0 1-2.283-3.446l2.611-54.08a11.661 11.661 0 0 1 4.7-8.825l20.4-15.175zm57.28-36.714c-3.8-2.978-10.58-8.61-15.681-10.627v-7c2.807 2.6 15.108 10.92 15.681 11.193zm2.206-14.07a65.587 65.587 0 0 1-14.891-11.552 3.9 3.9 0 0 0-2.891-1.283c-.433 0-9.414 3.884-13.411-1.537a5.2 5.2 0 0 1-.447-4.991c1.254-3 5.131-1.944 5.867-1.713a3.9 3.9 0 0 0 5.09-3.136c1.09-7.49 4.164-13.084 9.135-16.624 7.553-5.38 17.714-4.918 21.673-4.484a77.482 77.482 0 0 1 4.851 10.285l-1.579.493a3.9 3.9 0 0 0 1.159 7.619c.384 0 2.854-.7 2.854-.7a54.97 54.97 0 0 1 2.055 18.635c-.327 3.836-3.6 8.608-6.856 10.011-.859.365-7.073 2.132-12.609-1.023zm56.817 120.018c-.041.04-.07.087-.109.128s-.083.07-.119.111c-.059.067-6.023 6.753-19.285 14.415a35.886 35.886 0 0 0-15 16.425c-2.421 5.417-2.817 11.468-2.752 19.546-8.607-.067-28.219.878-39.963 9.634-2.557-5.8-6.8-15.345-9.769-21.6a43.5 43.5 0 0 1-2.2-31.231c1.75-3 18.836-31.239 43.04-35.945 13.962-2.714 22.815-4.923 28.2-6.463-1.612 7.938-2.243 20.811 6.3 31.968a3.9 3.9 0 0 0 6.189-4.739c-8.714-11.379-5.088-25.779-3.624-30.3 5.943-2.5 27.4-11.67 45.773-21.416.455 5.6 2.106 13.553 7.365 19.959-7.215 6.049-25.37 21.523-44.046 39.508zm50.369-44.1c-5.636-6.564-6.1-16.031-6.037-19.825 5.336-3.791 24.358-16.94 45.033-26.91.03 3.466 1.053 8.95 5.19 12.588a243.886 243.886 0 0 1-44.186 34.145zm106.727-68.826c-2.572 5.6-6.51 12.253-14.2 14.062-11.926 2.807-18.07 7.2-21.123 10.394a35.839 35.839 0 0 1-5.723 4.895c-3.034 1.882-7.5 3.913-11.21 2.341-5.488-2.324-7.3-7.815-7.651-9.845-.89-5.165 1.235-11.582 6.333-13.381 3.668-1.294 11.277-4.576 21.027-12.021 8.766-6.695 17.536-7.81 23.338-8.548l.231-.03a8.058 8.058 0 0 1 7.615 3.436c1.843 2.637 2.429 6.376 1.363 8.695z"
        fill="#313844" opacity="1" data-original="#313844" className=""></path>
    </g>
  </g>
</svg>