<svg xmlns="http://www.w3.org/2000/svg" version="1.1" xmlns:xlink="http://www.w3.org/1999/xlink" width="512"
  height="512" x="0" y="0" viewBox="0 0 512 512" style="enable-background:new 0 0 512 512" xml:space="preserve"
  className="">
  <g>
    <path
      d="M256 78.2c8.284 0 15-6.716 15-15V15c0-8.284-6.716-15-15-15s-15 6.716-15 15v48.2c0 8.284 6.716 15 15 15zM109.065 130.278c5.858 5.858 15.355 5.858 21.213 0s5.858-15.355 0-21.213L96.196 74.982c-5.858-5.858-15.355-5.858-21.213 0s-5.858 15.355 0 21.213l34.082 34.083zM109.059 381.728 74.977 415.81c-5.858 5.858-5.858 15.355 0 21.213s15.355 5.858 21.213 0l34.083-34.083c5.858-5.858 5.858-15.355 0-21.213s-15.356-5.857-21.214.001zM256 433.8c-8.284 0-15 6.716-15 15V497c0 8.284 6.716 15 15 15s15-6.716 15-15v-48.2c0-8.284-6.716-15-15-15zM78.2 256c0-8.284-6.716-15-15-15H15c-8.284 0-15 6.716-15 15s6.716 15 15 15h48.2c8.284 0 15-6.716 15-15zM256 128.533c-70.285 0-127.467 57.182-127.467 127.467S185.715 383.467 256 383.467 383.467 326.285 383.467 256 326.285 128.533 256 128.533zM402.941 130.272l34.083-34.083c5.858-5.858 5.858-15.355 0-21.213s-15.355-5.858-21.213 0l-34.083 34.083c-5.858 5.858-5.858 15.355 0 21.213s15.355 5.858 21.213 0zM402.935 381.722c-5.858-5.858-15.355-5.858-21.213 0s-5.858 15.355 0 21.213l34.083 34.083c5.858 5.858 15.355 5.858 21.213 0s5.858-15.355 0-21.213l-34.083-34.083zM497 241h-48.2c-8.284 0-15 6.716-15 15s6.716 15 15 15H497c8.284 0 15-6.716 15-15s-6.716-15-15-15z"
      fill="#000000" opacity="1" data-original="#000000" className=""></path>
  </g>
</svg>